<?xml version="1.0" standalone="no"?>
<!DOCTYPE svg PUBLIC "-//W3C//DTD SVG 20010904//EN"
 "http://www.w3.org/TR/2001/REC-SVG-20010904/DTD/svg10.dtd">
<svg version="1.0" xmlns="http://www.w3.org/2000/svg"
 width="716.000000pt" height="708.000000pt" viewBox="0 0 716.000000 708.000000"
 preserveAspectRatio="xMidYMid meet">

<g transform="translate(0.000000,708.000000) scale(0.100000,-0.100000)"
fill="#000000" stroke="none">
<path d="M0 3540 l0 -3540 2445 0 2445 0 0 1287 0 1287 76 -117 76 -117 49 0
49 0 0 305 0 305 -40 0 -40 0 0 -242 0 -241 -85 132 -85 132 0 484 0 485 -43
0 c-53 0 -137 40 -173 83 l-26 31 27 14 c51 26 138 52 177 52 l38 0 0 48 c0
26 -5 53 -12 60 -9 9 -9 15 0 24 20 20 14 98 -14 167 -23 57 -26 75 -21 136 6
70 25 135 39 135 4 0 8 332 8 739 l0 738 -38 27 c-21 14 -52 40 -67 56 -37 38
-25 52 50 58 55 4 55 5 55 38 0 32 -1 32 -32 23 -73 -20 -155 1 -246 63 -42
29 -44 32 -27 44 56 41 153 28 240 -31 l64 -44 -25 52 c-26 56 -32 134 -13
168 8 16 13 18 25 8 12 -10 14 36 14 340 l0 351 -2445 0 -2445 0 0 -3540z
m3120 3075 c-31 -50 -209 -183 -224 -168 -3 4 -6 21 -6 38 0 65 70 133 185
180 58 24 60 24 63 4 2 -10 -6 -35 -18 -54z m1245 41 c60 -27 120 -77 141
-117 15 -30 19 -85 6 -92 -4 -3 -43 18 -87 47 -82 54 -155 125 -155 150 0 8
-3 22 -7 32 -5 15 -2 16 23 10 16 -4 52 -18 79 -30z m-936 13 c17 -6 31 -14
31 -19 0 -17 -147 -73 -207 -78 -74 -6 -78 3 -26 48 65 57 132 73 202 49z
m694 -5 c36 -18 97 -73 97 -87 0 -5 -28 -8 -63 -5 -46 3 -83 13 -142 42 l-80
38 30 14 c41 18 120 17 158 -2z m-1293 -132 c0 -15 -9 -45 -19 -68 -19 -43
-135 -184 -151 -184 -5 0 -15 18 -21 40 -11 37 -10 44 17 98 22 42 46 69 93
105 34 26 67 45 72 42 5 -4 9 -18 9 -33z m1814 9 c94 -65 144 -148 132 -216
-9 -48 -23 -52 -59 -17 l-32 30 -35 -19 c-21 -12 -54 -19 -86 -19 -46 0 -152
28 -197 52 -18 9 -18 11 -1 29 44 49 152 46 255 -7 l52 -26 -30 39 c-17 21
-38 52 -47 70 -18 36 -22 113 -5 113 6 0 29 -13 53 -29z m-1379 -30 c22 -10
46 -25 53 -34 12 -14 9 -17 -25 -26 -78 -22 -189 -25 -237 -7 -24 9 -50 23
-56 31 -10 12 -7 17 16 26 83 32 192 36 249 10z m1110 -4 c22 -8 40 -18 40
-23 0 -5 -20 -19 -45 -31 -51 -26 -113 -29 -221 -11 -83 13 -88 30 -19 66 39
21 55 23 125 19 44 -3 98 -12 120 -20z m-1345 -119 l35 -21 -52 -24 c-100 -46
-211 -54 -259 -19 -25 19 -14 30 62 61 78 32 165 34 214 3z m-465 -76 c-1 -48
-8 -70 -45 -141 -25 -46 -50 -86 -57 -88 -18 -6 -43 51 -43 99 0 52 31 113 85
169 47 49 60 41 60 -39z m230 -66 c19 -8 35 -19 35 -23 0 -16 -125 -82 -175
-94 -38 -8 -61 -8 -94 1 l-43 11 23 25 c46 49 136 93 192 94 15 0 43 -7 62
-14z m-445 -118 c11 -24 20 -57 20 -73 0 -36 -23 -129 -45 -182 -15 -36 -15
-36 -36 -17 -61 55 -66 138 -13 243 19 39 40 71 45 71 6 0 19 -19 29 -42z
m274 -71 l28 -12 -51 -48 c-28 -27 -70 -57 -94 -67 -47 -22 -132 -26 -143 -8
-10 16 108 125 148 137 45 13 78 12 112 -2z m-440 -180 c38 -50 49 -117 36
-214 -7 -46 -16 -83 -21 -83 -20 0 -79 64 -90 97 -6 20 -9 60 -6 92 5 59 33
141 48 141 4 0 19 -15 33 -33z m314 -35 c10 -7 8 -15 -9 -38 -69 -91 -121
-127 -202 -139 -55 -8 -59 0 -26 55 32 54 70 91 114 111 42 19 101 24 123 11z
m-417 -262 c44 -46 57 -84 66 -192 6 -73 5 -78 -14 -78 -34 0 -87 43 -110 90
-24 45 -28 92 -17 174 8 58 24 59 75 6z m324 30 c9 -14 -30 -85 -73 -132 -40
-45 -101 -77 -145 -78 -25 0 -27 3 -22 23 13 41 57 115 85 142 43 41 140 70
155 45z m-55 -255 c0 -8 -9 -38 -20 -67 -29 -77 -129 -168 -186 -168 -13 0
-15 6 -9 38 17 91 64 162 130 196 39 20 85 21 85 1z m-376 -45 c76 -28 137
-124 152 -238 l6 -51 -33 6 c-98 15 -147 83 -156 215 -3 43 -3 78 0 78 3 0 17
-4 31 -10z m366 -204 c0 -38 -35 -141 -60 -176 -21 -30 -103 -90 -122 -90 -13
0 -8 101 6 143 20 55 60 102 108 126 55 27 68 27 68 -3z m-324 -132 c44 -21
80 -64 116 -139 39 -83 38 -95 -12 -95 -57 0 -101 21 -137 65 -30 36 -63 128
-63 174 0 21 4 23 31 17 17 -3 46 -13 65 -22z m351 -153 c-8 -94 -38 -160
-100 -218 l-50 -47 -9 25 c-6 13 -8 53 -5 89 4 70 30 131 69 166 24 23 77 53
92 54 5 0 6 -31 3 -69z m-306 -151 c19 -5 53 -25 75 -44 43 -37 111 -142 100
-154 -4 -4 -40 -7 -80 -7 -64 0 -77 3 -108 27 -37 28 -98 134 -98 170 0 14 8
18 38 18 20 0 53 -5 73 -10z m379 -113 c0 -47 -6 -92 -15 -113 -20 -49 -84
-134 -100 -134 -7 0 -18 20 -24 44 -30 120 1 216 91 283 41 30 48 20 48 -80z
m110 -159 c21 -71 16 -169 -13 -230 -13 -29 -33 -64 -44 -78 l-21 -24 -22 44
c-31 60 -38 156 -16 213 16 43 75 117 93 117 6 0 16 -19 23 -42z m-334 -37
c40 -18 144 -113 144 -131 0 -20 -66 -44 -120 -44 -41 -1 -65 5 -93 23 -37 23
-117 123 -117 147 0 28 127 32 186 5z m2578 -170 c32 -59 42 -130 27 -186 -14
-52 -66 -135 -85 -135 -8 0 -24 24 -37 58 -33 82 -33 200 0 262 44 85 49 85
95 1z m-2091 2 c13 -32 28 -74 31 -94 8 -44 -7 -126 -34 -186 -20 -46 -20 -46
-41 -27 -70 63 -93 198 -50 284 25 47 49 80 61 80 4 0 19 -26 33 -57z m-276
-118 c75 -38 109 -67 98 -85 -14 -23 -110 -60 -155 -60 -56 0 -134 43 -179 97
-34 41 -32 48 25 68 70 25 133 19 211 -20z m2171 -32 c32 -71 36 -159 8 -213
-22 -42 -95 -120 -113 -120 -18 0 -36 75 -36 155 0 56 5 80 26 121 24 48 73
114 83 114 3 0 17 -26 32 -57z m-1709 2 c42 -58 61 -115 61 -181 0 -67 -18
-154 -33 -154 -6 0 -32 22 -58 50 -56 57 -85 134 -73 197 9 54 44 133 59 133
6 0 26 -20 44 -45z m235 -128 c68 -68 96 -138 96 -242 0 -45 -4 -75 -10 -75
-22 0 -87 40 -122 75 -51 52 -72 110 -65 183 6 65 22 112 37 112 6 0 35 -24
64 -53z m1253 7 c32 -108 -1 -217 -86 -280 -25 -18 -58 -38 -73 -43 l-28 -10
0 83 c0 116 20 167 92 239 32 32 64 57 70 55 7 -3 18 -22 25 -44z m-1022 -53
c100 -47 178 -158 191 -273 4 -32 4 -58 1 -58 -2 0 -34 9 -69 20 -69 21 -138
72 -163 120 -23 45 -36 120 -29 167 7 48 12 50 69 24z m765 -58 c0 -54 -6 -91
-19 -118 -31 -69 -118 -131 -210 -150 l-34 -7 6 55 c12 119 90 232 190 278 66
29 67 28 67 -58z m-1450 38 c88 -34 89 -35 55 -72 -39 -41 -120 -79 -170 -79
-47 0 -138 40 -177 77 l-28 26 37 25 c81 56 178 63 283 23z m303 -173 c20 -6
37 -14 37 -17 0 -18 -60 -85 -98 -111 -53 -35 -96 -45 -162 -37 -58 7 -150 45
-150 62 0 14 62 65 107 89 71 36 171 41 266 14z m1731 -13 c30 -15 69 -42 87
-61 l32 -33 -34 -20 c-85 -52 -222 -54 -292 -5 -42 30 -112 112 -103 122 15
15 120 31 183 28 54 -2 85 -10 127 -31z m-1389 -95 c8 -14 -32 -89 -69 -128
-48 -51 -101 -75 -181 -79 -72 -4 -155 13 -162 33 -6 19 88 114 139 140 28 14
69 29 92 34 59 11 174 12 181 0z m1000 -11 c57 -17 78 -31 131 -83 35 -34 64
-69 64 -77 0 -35 -171 -51 -253 -23 -71 24 -167 133 -167 189 0 24 140 20 225
-6z m-645 -48 c0 -16 -15 -58 -33 -93 -54 -104 -157 -158 -304 -158 -83 0 -86
5 -54 68 52 100 149 168 281 196 101 22 110 21 110 -13z m189 14 c125 -30 222
-100 272 -197 32 -63 29 -68 -55 -68 -170 0 -284 72 -325 205 -12 37 -21 69
-21 71 0 9 69 3 129 -11z"/>
<path d="M5463 2946 c-140 -44 -211 -161 -200 -331 8 -129 58 -214 153 -260
50 -24 215 -31 294 -13 l55 13 3 153 3 152 -106 0 -105 0 0 -35 0 -35 70 0 70
0 0 -89 c0 -105 2 -103 -120 -104 -86 0 -140 21 -183 73 -34 40 -47 89 -47
181 0 95 32 167 93 207 60 40 185 43 279 7 13 -5 38 31 38 55 0 17 -104 40
-179 39 -42 0 -95 -6 -118 -13z"/>
<path d="M5910 2645 l0 -305 40 0 40 0 0 140 0 140 155 0 155 0 0 -140 0 -140
40 0 40 0 0 305 0 305 -40 0 -40 0 0 -130 0 -130 -155 0 -155 0 0 130 0 130
-40 0 -40 0 0 -305z"/>
<path d="M4900 1320 l0 -100 64 0 c39 0 67 5 73 13 19 24 21 45 7 72 -8 15
-11 37 -8 50 3 13 1 33 -6 44 -9 18 -20 21 -70 21 l-60 0 0 -100z m90 45 c0
-18 -5 -25 -20 -25 -15 0 -20 7 -20 25 0 18 5 25 20 25 15 0 20 -7 20 -25z m8
-64 c23 -14 10 -46 -21 -49 -24 -3 -27 0 -27 27 0 32 19 41 48 22z"/>
<path d="M5130 1320 l0 -100 65 0 c51 0 65 3 65 15 0 11 -12 15 -45 15 l-45 0
0 85 c0 78 -2 85 -20 85 -19 0 -20 -7 -20 -100z"/>
<path d="M5330 1320 l0 -100 66 0 c48 0 65 3 62 13 -3 6 -23 13 -46 15 -39 3
-42 5 -42 33 0 27 3 29 36 29 45 0 42 24 -4 28 -26 3 -32 8 -32 28 0 20 5 24
29 24 35 0 61 9 61 21 0 5 -29 9 -65 9 l-65 0 0 -100z"/>
</g>
</svg>
